<svg xmlns="http://www.w3.org/2000/svg" width="32.044" height="24.014" viewBox="0 0 32.044 24.014">
  <g id="Grupo_1322" data-name="Grupo 1322" transform="translate(-965.719 -765.117)">
    <path id="Trazado_69" data-name="Trazado 69" d="M981.744,789.131H967.591a1.715,1.715,0,0,1-1.814-1.3,1.75,1.75,0,0,1,.917-1.979.493.493,0,0,0,.173-.365c.012-1.405.008-2.811.008-4.216q0-6.307,0-12.614a3.41,3.41,0,0,1,3.556-3.543h22.622a3.408,3.408,0,0,1,3.557,3.542q0,8.38-.005,16.759a.5.5,0,0,0,.3.521,1.711,1.711,0,0,1-.867,3.191Q988.891,789.133,981.744,789.131Zm13.724-3.443v-.383q0-8.253,0-16.505a2.327,2.327,0,0,0-2.524-2.54h-22.4a2.322,2.322,0,0,0-2.522,2.506q0,8.271,0,16.541v.369h11.5a1.74,1.74,0,0,1,1.847-2.261c1.465,0,2.93,0,4.395,0a1.624,1.624,0,0,1,1.137.437,1.759,1.759,0,0,1,.5,1.837h1.274c-.008-.06-.011-.106-.02-.15a1.71,1.71,0,0,1,1.732-2.122c.75,0,1.5-.039,2.25.016a2.14,2.14,0,0,1,1.045.368,1.682,1.682,0,0,1,.585,1.889Zm-13.727,1.156H967.769q-.9,0-.89.582c.009.376.3.562.875.562h27.98q.863,0,.872-.565c.006-.38-.288-.579-.857-.579Zm1.707-2.287c-.714,0-1.428,0-2.143,0-.42,0-.689.221-.7.554s.27.586.7.587q2.143.005,4.285,0c.441,0,.721-.229.719-.573s-.28-.567-.723-.569C984.876,784.555,984.162,784.557,983.448,784.557Zm8.021,1.144H992.5c.408-.014.681-.252.672-.585a.6.6,0,0,0-.662-.557q-1.053-.01-2.106,0a.575.575,0,1,0-.009,1.14C990.754,785.709,991.112,785.7,991.468,785.7Z" fill="#25aae1"/>
    <path id="Trazado_70" data-name="Trazado 70" d="M1056.218,831.3a2.921,2.921,0,0,1-1.855,2.607,2.691,2.691,0,0,1-3.07-.813c-.879-1.094-1.7-2.235-2.546-3.357-.559-.742-1.111-1.488-1.673-2.227a1.144,1.144,0,0,0-1.571-.359,1.158,1.158,0,0,0-.379,1.567c.3.609.607,1.212.9,1.821a2.083,2.083,0,0,1-.662,2.716,2.06,2.06,0,0,1-2.768-.388q-2.324-2.571-4.637-5.151c-.311-.346-.33-.7-.054-.937s.61-.178.927.174q2.3,2.547,4.588,5.1a.972.972,0,0,0,1.081.348.912.912,0,0,0,.5-1.318c-.313-.654-.659-1.292-.967-1.948a2.3,2.3,0,0,1,1.476-3.235,2.265,2.265,0,0,1,2.44.851c1.36,1.792,2.7,3.6,4.055,5.4a1.613,1.613,0,0,0,2.824-1.551c-.657-1.476-1.333-2.943-2-4.413-.054-.119-.111-.237-.162-.357-.166-.392-.075-.7.25-.849a.581.581,0,0,1,.8.364c.736,1.61,1.477,3.218,2.191,4.837A7.5,7.5,0,0,1,1056.218,831.3Z" transform="translate(-65.123 -54.094)" fill="#25aae1"/>
  </g>
</svg>
