<svg xmlns="http://www.w3.org/2000/svg" width="26.012" height="26.019" viewBox="0 0 26.012 26.019">
  <g id="Grupo_1328" data-name="Grupo 1328" transform="translate(377.526 -313.995)">
    <path id="Trazado_58" data-name="Trazado 58" d="M-377.526,320.752a1.5,1.5,0,0,1,.291-.225.423.423,0,0,1,.568.338,2.51,2.51,0,0,1,.008.33q0,8.23,0,16.459a1.327,1.327,0,0,0,.716,1.324,1.558,1.558,0,0,0,.657.155q5.093.014,10.185.006c.033,0,.065-.007.134-.014,0-.3.012-.606-.01-.905,0-.065-.122-.145-.2-.176a9.506,9.506,0,0,0-3.722-.628,29.934,29.934,0,0,0-6.222.815c-.456.112-.671-.06-.671-.538q0-5.359,0-10.719,0-4.013,0-8.026c0-.44.076-.542.505-.651a24.364,24.364,0,0,1,4.775-.741c.962-.048,1.929-.086,2.89-.043a8.846,8.846,0,0,1,3.244.832.491.491,0,0,1,.308.456c0,.084,0,.169,0,.254q0,7.963,0,15.926v.337c.092-.041.159-.066.221-.1a47.168,47.168,0,0,1,6.943-3.254.245.245,0,0,0,.183-.281c-.007-.525,0-1.05,0-1.575V315.075c-.44.189-.843.354-1.24.533a48.766,48.766,0,0,0-4.862,2.565,1.1,1.1,0,0,1-.247.127.411.411,0,0,1-.508-.178.4.4,0,0,1,.085-.548,1.447,1.447,0,0,1,.228-.159,45.249,45.249,0,0,1,6.632-3.319,2.06,2.06,0,0,0,.2-.1h.3a.619.619,0,0,1,.3.594q-.007,8.725,0,17.449c0,.389-.076.507-.448.637a47.589,47.589,0,0,0-7.8,3.687,2.342,2.342,0,0,1-.268.142.41.41,0,0,1-.576-.281,1.473,1.473,0,0,1-.034-.376q0-8.255,0-16.51a.348.348,0,0,0-.27-.4,9.829,9.829,0,0,0-3.5-.595,29.487,29.487,0,0,0-5.98.712c-.172.039-.214.1-.214.266q0,8.864,0,17.729c0,.065.01.13.015.2.686-.122,1.356-.246,2.029-.359a24.2,24.2,0,0,1,5.156-.327,9.712,9.712,0,0,1,3.021.71.63.63,0,0,0,.4.015,13.988,13.988,0,0,1,5.769-.7,26.218,26.218,0,0,1,4.205.624c.056.014.116.015.211.028v-.278q0-8.775.006-17.551c0-.241-.078-.33-.3-.344a1.092,1.092,0,0,1-.341-.089.393.393,0,0,1-.254-.47.367.367,0,0,1,.407-.339,6.543,6.543,0,0,1,1.088.214c.116.035.188.23.266.361.026.044.006.116.006.175q0,9.372,0,18.745c0,.051,0,.1,0,.152a.45.45,0,0,1-.6.434c-.865-.188-1.724-.425-2.6-.548a15.911,15.911,0,0,0-6.15.019c-.442.11-.877.246-1.316.366a.2.2,0,0,0-.173.228c.012.262,0,.524,0,.826h10.212a1.342,1.342,0,0,0,1.48-1.479q0-8.242,0-16.484a2.635,2.635,0,0,1,.007-.3.427.427,0,0,1,.414-.373.432.432,0,0,1,.44.374,1.818,1.818,0,0,1,.005.228q0,8.306,0,16.611a2.165,2.165,0,0,1-2.288,2.293q-10.706,0-21.412.008a2.238,2.238,0,0,1-2.274-1.773.226.226,0,0,0-.037-.063Z" transform="translate(0 0)" fill="#e9b663"/>
    <path id="Trazado_59" data-name="Trazado 59" d="M-305.449,558.687c.555.069,1.327.152,2.094.266a.424.424,0,0,1,.389.545.454.454,0,0,1-.58.308c-.066-.013-.133-.023-.2-.036a9.476,9.476,0,0,0-2.905-.1c-.753.082-1.5.228-2.249.35a.454.454,0,0,1-.544-.336.414.414,0,0,1,.338-.511c.627-.132,1.257-.257,1.891-.346C-306.705,558.755-306.187,558.742-305.449,558.687Z" transform="translate(-63.738 -229.123)" fill="#e9b663"/>
    <path id="Trazado_60" data-name="Trazado 60" d="M-305.609,517.551c.737.087,1.475.167,2.21.266.334.045.491.254.446.531s-.264.391-.606.325a12.985,12.985,0,0,0-5.28.206.445.445,0,0,1-.594-.312.456.456,0,0,1,.4-.544A19.729,19.729,0,0,1-305.609,517.551Z" transform="translate(-63.748 -190.604)" fill="#e9b663"/>
    <path id="Trazado_61" data-name="Trazado 61" d="M-303.345,601.282c-.445-.061-.811-.123-1.18-.159a13.372,13.372,0,0,0-4.3.337c-.324.074-.554-.044-.62-.314-.061-.249.091-.449.408-.537.033-.009.064-.021.1-.029a14.086,14.086,0,0,1,3.544-.389,17.682,17.682,0,0,1,2.086.235.4.4,0,0,1,.346.5A.4.4,0,0,1-303.345,601.282Z" transform="translate(-63.733 -267.983)" fill="#e9b663"/>
    <path id="Trazado_62" data-name="Trazado 62" d="M-305.557,476.743c.714.087,1.442.167,2.169.267.324.045.472.241.436.512s-.242.408-.572.345a10.121,10.121,0,0,0-3-.146c-.729.078-1.452.211-2.178.319-.067.01-.132.03-.2.039a.435.435,0,0,1-.536-.339.444.444,0,0,1,.372-.519,9.177,9.177,0,0,1,.991-.2C-307.246,476.914-306.415,476.835-305.557,476.743Z" transform="translate(-63.747 -152.393)" fill="#e9b663"/>
    <path id="Trazado_63" data-name="Trazado 63" d="M-303.438,437.755c-.427-.05-.853-.107-1.28-.148a13.222,13.222,0,0,0-4.05.333,1.377,1.377,0,0,1-.174.031.436.436,0,0,1-.509-.348.436.436,0,0,1,.355-.506c.411-.1.823-.189,1.239-.252a13.63,13.63,0,0,1,3.538-.113c.335.036.668.093,1,.161a.423.423,0,0,1,.356.5A.394.394,0,0,1-303.438,437.755Z" transform="translate(-63.735 -114.883)" fill="#e9b663"/>
    <path id="Trazado_64" data-name="Trazado 64" d="M-144.907,514.3c-.1-.1-.276-.184-.32-.315a.867.867,0,0,1,.074-.462c.015-.05.1-.088.161-.115q1.846-.833,3.694-1.659a1.132,1.132,0,0,1,.292-.082.4.4,0,0,1,.462.268.4.4,0,0,1-.161.511.835.835,0,0,1-.157.083q-1.816.806-3.632,1.61C-144.609,514.186-144.728,514.227-144.907,514.3Z" transform="translate(-217.506 -185.084)" fill="#e9b663"/>
    <path id="Trazado_65" data-name="Trazado 65" d="M-144.863,473.356c-.1-.088-.271-.168-.313-.291a.865.865,0,0,1,.056-.465c.016-.057.11-.1.178-.133q1.881-.845,3.766-1.682a.658.658,0,0,1,.318-.066.411.411,0,0,1,.382.351.392.392,0,0,1-.231.461c-.223.1-.46.167-.683.268-1.022.463-2.041.934-3.063,1.4C-144.568,473.25-144.688,473.289-144.863,473.356Z" transform="translate(-217.55 -146.75)" fill="#e9b663"/>
    <path id="Trazado_66" data-name="Trazado 66" d="M-141.1,389.392c-.115.119-.208.286-.348.35-1.265.579-2.537,1.141-3.809,1.7a.43.43,0,0,1-.622-.2.421.421,0,0,1,.238-.588q1.912-.865,3.836-1.706a.422.422,0,0,1,.6.193,1.3,1.3,0,0,1,.06.189Z" transform="translate(-216.862 -70.138)" fill="#e9b663"/>
    <path id="Trazado_67" data-name="Trazado 67" d="M-141.17,430.3c0,.218-.179.328-.394.421q-1.453.623-2.9,1.26c-.278.122-.544.271-.822.394a.428.428,0,0,1-.606-.186.414.414,0,0,1,.222-.592q1.935-.877,3.883-1.725A.434.434,0,0,1-141.17,430.3Z" transform="translate(-216.849 -108.463)" fill="#e9b663"/>
    <path id="Trazado_68" data-name="Trazado 68" d="M-141.635,552.605a.422.422,0,0,1,.464.278.4.4,0,0,1-.136.478.855.855,0,0,1-.2.109l-3.515,1.559c-.092.041-.182.09-.276.124a.422.422,0,0,1-.574-.208.429.429,0,0,1,.232-.591c.489-.248.979-.5,1.48-.719.748-.332,1.5-.643,2.259-.958A1.672,1.672,0,0,1-141.635,552.605Z" transform="translate(-216.873 -223.427)" fill="#e9b663"/>
  </g>
</svg>
