<svg xmlns="http://www.w3.org/2000/svg" width="20.108" height="27.431" viewBox="0 0 20.108 27.431">
  <g id="Grupo_1329" data-name="Grupo 1329" transform="translate(-792.044 -298.36)">
    <path id="Trazado_56" data-name="Trazado 56" d="M809.387,324.926c.3,0,.553-.006.809,0,.3.01.468.17.468.429s-.166.414-.467.432c-.083.005-.166,0-.248,0H794.235c-.064,0-.129,0-.193,0-.342-.012-.517-.165-.512-.443s.178-.413.5-.421c.23-.006.46,0,.69-.008a.364.364,0,0,0,.082-.034v-.639c0-.626,0-1.252,0-1.878a1.272,1.272,0,0,1,1.294-1.291c.571-.005,1.142.01,1.712-.009a.716.716,0,0,0,.43-.174,7.357,7.357,0,0,0,2.2-4.168c.075-.406.116-.817.183-1.3-.125.086-.2.136-.278.19-.767.556-1.528,1.12-2.3,1.668a1.753,1.753,0,0,1-2.814-1.174,2.048,2.048,0,0,1,.107-.889c.49-1.557,1-3.106,1.517-4.685-.4-.29-.794-.583-1.194-.874-.952-.692-1.91-1.378-2.857-2.077a1.767,1.767,0,0,1,.571-3.154,2.615,2.615,0,0,1,.656-.061c1.519,0,3.038-.008,4.557,0a.319.319,0,0,0,.365-.267c.472-1.476.953-2.95,1.433-4.423a1.773,1.773,0,0,1,3.426-.013c.48,1.474.963,2.947,1.433,4.425a.333.333,0,0,0,.384.279q2.32-.017,4.64,0a1.727,1.727,0,0,1,1.847,1.44,1.674,1.674,0,0,1-.725,1.781c-.947.7-1.9,1.386-2.856,2.078l-1.188.865,1.294,3.988c.093.288.194.574.278.864a1.737,1.737,0,0,1-.664,1.927,1.708,1.708,0,0,1-2.014.028c-.792-.553-1.566-1.13-2.349-1.7-.087-.063-.177-.123-.295-.205a7.884,7.884,0,0,0,2.4,5.5.554.554,0,0,0,.337.132c.589.013,1.178,0,1.767.008a1.27,1.27,0,0,1,1.285,1.3C809.39,323.212,809.387,324.049,809.387,324.926Zm-12.9-19.691h-2.54a1,1,0,0,0-.782.273.9.9,0,0,0,.167,1.386q2.05,1.5,4.1,2.987c.389.283.417.376.267.836-.516,1.588-1.036,3.174-1.541,4.765a1.308,1.308,0,0,0-.053.616.909.909,0,0,0,1.5.437c1.343-1,2.706-1.971,4.06-2.955.371-.27.483-.27.855,0,1.346.979,2.69,1.961,4.041,2.933a1.4,1.4,0,0,0,.539.251.9.9,0,0,0,.944-1.254c-.531-1.582-1.035-3.173-1.551-4.76-.165-.507-.145-.571.275-.876q2.02-1.468,4.041-2.935a.934.934,0,0,0,.454-.717.9.9,0,0,0-1.026-.984q-2.485-.005-4.97,0c-.544,0-.58-.027-.745-.536q-.773-2.381-1.545-4.763a.909.909,0,0,0-1.773,0q-.8,2.432-1.585,4.866c-.122.375-.2.434-.6.435C798.184,305.236,797.337,305.235,796.49,305.235Zm-.805,19.668h12.824c0-.876.01-1.732-.012-2.587a.543.543,0,0,0-.263-.342.778.778,0,0,0-.378-.035q-5.759,0-11.517,0a2.259,2.259,0,0,0-.3.012.359.359,0,0,0-.346.364C795.68,323.172,795.685,324.027,795.685,324.9Zm9.175-3.846a1.633,1.633,0,0,0-.092-.137,8.938,8.938,0,0,1-2.053-5.718c-.011-.307-.069-.536-.355-.667-.113-.052-.3-.156-.342-.116-.194.167-.524.2-.534.567-.013.468-.05.936-.109,1.4a8.513,8.513,0,0,1-1.624,4.13c-.13.173-.268.341-.424.541Z" transform="translate(0)" fill="#f24949"/>
    <path id="Trazado_57" data-name="Trazado 57" d="M879.842,635.883h-3.23a1.848,1.848,0,0,1-.275-.011.423.423,0,0,1-.025-.832,1.339,1.339,0,0,1,.3-.024q3.216,0,6.433,0c.439,0,.663.157.652.452s-.213.415-.654.415Z" transform="translate(-77.739 -311.811)" fill="#f24949"/>
  </g>
</svg>
