<svg xmlns="http://www.w3.org/2000/svg" width="27.391" height="27.431" viewBox="0 0 27.391 27.431">
  <g id="Grupo_1330" data-name="Grupo 1330" transform="translate(-975.32 -251.76)">
    <path id="Trazado_235" data-name="Trazado 235" d="M985.395,279.192a.866.866,0,0,1-.487-.893c.023-.749.007-1.5.007-2.249v-.286H984.6c-1.053,0-2.107,0-3.16,0a3.425,3.425,0,0,1-3.382-3.377c0-.821,0-1.643,0-2.464v-.293a10.125,10.125,0,0,1-1.1-.083,2.007,2.007,0,0,1-1.628-1.953q-.011-1.419,0-2.839a2.028,2.028,0,0,1,1.961-2.007c.247-.008.5,0,.772,0,0-.728,0-1.422,0-2.115A3.179,3.179,0,0,1,978.5,259a3.41,3.41,0,0,1,3.022-1.754c.562-.014,1.125,0,1.687,0h.318c0-.48.009-.933-.01-1.384,0-.068-.128-.148-.212-.192a2.059,2.059,0,0,1,.461-3.852,2.056,2.056,0,0,1,1.381,3.844.345.345,0,0,0-.239.378c.016.39,0,.781,0,1.188h8.214c0-.462.009-.914-.01-1.365,0-.068-.129-.146-.214-.193a2.043,2.043,0,0,1-1.134-2.023,2.061,2.061,0,1,1,2.976,2.013.348.348,0,0,0-.237.38c.016.39,0,.781,0,1.2.393,0,.757-.014,1.12,0a9.858,9.858,0,0,1,1.806.133,3.385,3.385,0,0,1,2.566,3.289c.009.677,0,1.355,0,2.076.266,0,.513-.006.759,0a2.033,2.033,0,0,1,1.9,1.5,1.271,1.271,0,0,1,.028.317c0,1.018-.038,2.037.013,3.052a2,2,0,0,1-1.6,1.93c-.349.054-.707.054-1.094.08,0,.107,0,.22,0,.332-.015.954.022,1.913-.057,2.862a3.38,3.38,0,0,1-3.238,2.939c-1.732.009-3.464,0-5.2.005a.653.653,0,0,0-.33.07q-2.688,1.671-5.367,3.356Zm.906-1.946c.129-.076.205-.119.28-.165,1.331-.831,2.656-1.671,4-2.486a1.487,1.487,0,0,1,.724-.207c1.722-.017,3.446-.036,5.168,0a2.1,2.1,0,0,0,2.161-2.154c-.007-3.811,0-7.623,0-11.434a2.068,2.068,0,0,0-2.17-2.17q-7.431,0-14.862,0a2.05,2.05,0,0,0-2.148,2.156q0,5.73,0,11.461a2.029,2.029,0,0,0,2.135,2.131c1.285,0,2.571,0,3.856,0,.6,0,.863.267.864.867C986.3,275.895,986.3,276.544,986.3,277.246Zm-8.257-13.109c-.09,0-.16-.012-.23-.011-.169,0-.339,0-.507.009a.62.62,0,0,0-.592.61q-.015,1.429,0,2.859a.629.629,0,0,0,.575.6c.246.019.494,0,.754,0Zm21.977,4.077c.242,0,.463.007.684,0a.657.657,0,0,0,.652-.647c.01-.927.008-1.855,0-2.782a.635.635,0,0,0-.512-.635,7.262,7.262,0,0,0-.825-.007Zm-16.457-14.385a.658.658,0,0,0,.675.673.673.673,0,0,0,0-1.346A.665.665,0,0,0,983.564,253.828Zm10.273.673a.673.673,0,1,0-.679-.671A.663.663,0,0,0,993.836,254.5Z" transform="translate(0 0)" fill="#fd45c7"/>
    <path id="Trazado_236" data-name="Trazado 236" d="M1108.216,514.692a12.207,12.207,0,0,1-4.979-1.086.7.7,0,1,1,.58-1.25,10.522,10.522,0,0,0,5.053.89,10.125,10.125,0,0,0,3.842-.931.686.686,0,1,1,.573,1.246,10.931,10.931,0,0,1-3.445,1C1109.3,514.625,1108.757,514.649,1108.216,514.692Z" transform="translate(-119.184 -243.678)" fill="#fd45c7"/>
    <path id="Trazado_237" data-name="Trazado 237" d="M1104.861,400.572a2.062,2.062,0,0,1,2.045,1.989.686.686,0,1,1-1.365.126c-.1-.578-.478-.855-.932-.677a.7.7,0,0,0-.441.617c-.065.479-.371.754-.768.7a.716.716,0,0,1-.6-.885A2.076,2.076,0,0,1,1104.861,400.572Z" transform="translate(-119.249 -139.212)" fill="#fd45c7"/>
    <path id="Trazado_238" data-name="Trazado 238" d="M1213.143,402.527a.7.7,0,0,1-.628.79.665.665,0,0,1-.741-.668.7.7,0,0,0-.961-.64.713.713,0,0,0-.414.611c-.06.474-.371.753-.769.693a.718.718,0,0,1-.6-.886,2.059,2.059,0,0,1,4.061-.242C1213.12,402.3,1213.127,402.413,1213.143,402.527Z" transform="translate(-218.626 -139.204)" fill="#fd45c7"/>
  </g>
</svg>
